<?xml version="1.0" encoding="UTF-8" standalone="no"?>
<!-- Created with Inkscape (http://www.inkscape.org/) -->

<svg
   xmlns:dc="http://purl.org/dc/elements/1.1/"
   xmlns:cc="http://creativecommons.org/ns#"
   xmlns:rdf="http://www.w3.org/1999/02/22-rdf-syntax-ns#"
   xmlns:svg="http://www.w3.org/2000/svg"
   xmlns="http://www.w3.org/2000/svg"
   xmlns:sodipodi="http://sodipodi.sourceforge.net/DTD/sodipodi-0.dtd"
   xmlns:inkscape="http://www.inkscape.org/namespaces/inkscape"
   width="210mm"
   height="297mm"
   viewBox="0 0 210 297"
   version="1.1"
   id="svg8"
   inkscape:version="0.92.5 (2060ec1f9f, 2020-04-08)"
   sodipodi:docname="scanvus.svg">
  <defs
     id="defs2">
    <filter
       inkscape:collect="always"
       style="color-interpolation-filters:sRGB"
       id="filter984"
       x="-0.011386905"
       width="1.0227738"
       y="-0.012682872"
       height="1.0253657">
      <feGaussianBlur
         inkscape:collect="always"
         stdDeviation="0.81439781"
         id="feGaussianBlur986" />
    </filter>
    <filter
       inkscape:collect="always"
       style="color-interpolation-filters:sRGB"
       id="filter984-2"
       x="-0.011386905"
       width="1.0227737"
       y="-0.012682872"
       height="1.0253657">
      <feGaussianBlur
         inkscape:collect="always"
         stdDeviation="0.81439781"
         id="feGaussianBlur986-5" />
    </filter>
    <filter
       inkscape:collect="always"
       style="color-interpolation-filters:sRGB"
       id="filter984-5"
       x="-0.011386905"
       width="1.0227737"
       y="-0.012682872"
       height="1.0253657">
      <feGaussianBlur
         inkscape:collect="always"
         stdDeviation="0.81439781"
         id="feGaussianBlur986-3" />
    </filter>
  </defs>
  <sodipodi:namedview
     id="base"
     pagecolor="#ffffff"
     bordercolor="#666666"
     borderopacity="1.0"
     inkscape:pageopacity="0.0"
     inkscape:pageshadow="2"
     inkscape:zoom="0.45254834"
     inkscape:cx="82.727279"
     inkscape:cy="486.9604"
     inkscape:document-units="mm"
     inkscape:current-layer="layer1"
     showgrid="false"
     showguides="false"
     inkscape:window-width="1366"
     inkscape:window-height="719"
     inkscape:window-x="0"
     inkscape:window-y="25"
     inkscape:window-maximized="1" />
  <metadata
     id="metadata5">
    <rdf:RDF>
      <cc:Work
         rdf:about="">
        <dc:format>image/svg+xml</dc:format>
        <dc:type
           rdf:resource="http://purl.org/dc/dcmitype/StillImage" />
        <dc:title />
      </cc:Work>
    </rdf:RDF>
  </metadata>
  <g
     inkscape:label="Layer 1"
     inkscape:groupmode="layer"
     id="layer1">
    <rect
       style="opacity:0.95;fill:none;fill-opacity:1;stroke:none;stroke-width:2.39936662;stroke-linejoin:round;stroke-miterlimit:4;stroke-dasharray:none;stroke-opacity:1;filter:url(#filter984)"
       id="rect982"
       width="171.64934"
       height="154.10979"
       x="15.500061"
       y="27.113182"
       inkscape:export-xdpi="433.99875"
       inkscape:export-ydpi="433.99875" />
    <rect
       style="opacity:0.95;fill:none;fill-opacity:1;stroke:none;stroke-width:2.39936662;stroke-linejoin:round;stroke-miterlimit:4;stroke-dasharray:none;stroke-opacity:1;filter:url(#filter984-2)"
       id="rect982-5"
       width="171.64934"
       height="154.10979"
       x="-654.10651"
       y="293.61127"
       transform="matrix(2.4159459,0,0,0.78339444,927.14094,86.582125)"
       inkscape:export-xdpi="266"
       inkscape:export-ydpi="266" />
    <flowRoot
       xml:space="preserve"
       id="flowRoot869-6-0"
       style="font-style:normal;font-weight:normal;font-size:265.62667847px;line-height:1.25;font-family:sans-serif;letter-spacing:0px;word-spacing:0px;fill:#000000;fill-opacity:1;stroke:none;stroke-opacity:1"
       transform="matrix(0.26458333,0,0,0.26458333,502.99687,-163.07667)"
       inkscape:export-xdpi="842.6037"
       inkscape:export-ydpi="842.6037"><flowRegion
         id="flowRegion871-7-4"
         style="font-size:265.62667847px;stroke:none;stroke-opacity:1"><rect
           id="rect873-7-0"
           width="1096.0155"
           height="331.4563"
           x="-1767.767"
           y="928.06531"
           style="font-size:265.62667847px;stroke:none;stroke-opacity:1" /></flowRegion><flowPara
         id="flowPara875-3-2"
         style="font-style:normal;font-variant:normal;font-weight:normal;font-stretch:normal;font-size:146.66667175px;font-family:'Trebuchet MS';-inkscape-font-specification:'Trebuchet MS';stroke:none;stroke-opacity:1">Scanvus</flowPara></flowRoot>    <flowRoot
       xml:space="preserve"
       id="flowRoot1057"
       style="fill:black;fill-opacity:1;stroke:none;font-family:sans-serif;font-style:normal;font-weight:normal;font-size:40px;line-height:1.25;letter-spacing:0px;word-spacing:0px"><flowRegion
         id="flowRegion1059"><rect
           id="rect1061"
           width="1933.4951"
           height="669.54175"
           x="-2631.7629"
           y="1120.3099" /></flowRegion><flowPara
         id="flowPara1063" /></flowRoot>    <flowRoot
       xml:space="preserve"
       id="flowRoot1065"
       style="fill:black;fill-opacity:1;stroke:none;font-family:sans-serif;font-style:normal;font-weight:normal;font-size:40px;line-height:1.25;letter-spacing:0px;word-spacing:0px"><flowRegion
         id="flowRegion1067"><rect
           id="rect1069"
           width="1241.8563"
           height="3595.196"
           x="-1895.9301"
           y="921.43622" /></flowRegion><flowPara
         id="flowPara1071" /></flowRoot>    <flowRoot
       xml:space="preserve"
       id="flowRoot849"
       style="fill:black;fill-opacity:1;stroke:none;font-family:Norasi;font-style:normal;font-weight:normal;font-size:40px;line-height:1.25;letter-spacing:0px;word-spacing:0px;-inkscape-font-specification:Norasi;font-stretch:normal;font-variant:normal"><flowRegion
         id="flowRegion851"><rect
           id="rect853"
           width="153.125"
           height="157.8125"
           x="682.8125"
           y="330.33218" /></flowRegion><flowPara
         id="flowPara855" /></flowRoot>    <path
       style="fill:#ff0000;fill-opacity:1;stroke:#ff0000;stroke-width:0.18078418;stroke-miterlimit:4;stroke-dasharray:none;stroke-opacity:1"
       d="m 113.46107,83.575399 c -8.55317,-8.55642 -10.30817,-10.167088 -11.07816,-10.167088 -0.58062,0 -1.25992,-0.344961 -1.85902,-0.944077 -1.269286,-1.269282 -1.269286,-2.65607 0,-3.925369 1.26929,-1.269292 2.65609,-1.269292 3.92539,0 0.59726,0.597258 0.94405,1.278796 0.94405,1.855239 0,0.764898 1.63437,2.546116 10.18159,11.096465 l 10.18156,10.185306 -1.06608,1.0333 -1.0661,1.03329 z m 10.81748,2.742706 c -0.92644,-0.96697 -0.93057,-0.98812 -0.36206,-1.857106 1.04959,-1.604415 2.72683,-5.373576 3.26555,-7.338473 1.32203,-4.822065 0.91116,-11.393338 -1.01293,-16.199611 -2.42471,-6.056806 -8.03177,-11.673052 -14.06549,-14.088512 -2.37789,-0.951939 -6.40756,-1.847815 -8.31152,-1.847815 h -1.30551 v -1.630909 -1.630908 l 2.01858,0.206944 c 10.49049,1.075483 19.03709,6.827063 23.49652,15.812356 2.15507,4.34221 3.00464,7.949468 3.00464,12.757479 0,4.270639 -0.76456,8.001256 -2.3617,11.52368 -1.07769,2.376813 -2.8348,5.270985 -3.20014,5.270985 -0.12587,0 -0.65054,-0.44016 -1.16594,-0.97811 z m -6.10073,-6.099153 -0.9013,-0.940756 0.83703,-2.092266 c 3.39488,-8.485855 -0.0776,-17.921628 -8.03749,-21.840271 -1.85628,-0.913838 -3.43444,-1.361031 -6.37834,-1.807378 -1.19081,-0.180548 -1.21113,-0.207789 -1.21113,-1.622381 v -1.438749 h 1.24023 c 1.90084,0 6.00369,1.157852 8.22741,2.321835 2.64465,1.384326 6.85058,5.590252 8.23492,8.234916 2.25311,4.304453 2.89172,9.719874 1.69702,14.391121 -0.6344,2.480507 -2.08138,5.734675 -2.54994,5.734675 -0.1414,0 -0.66271,-0.423332 -1.15841,-0.940746 z m -6.30077,-6.300086 c -1.03592,-1.069807 -1.10119,-1.264979 -1.02747,-3.071276 0.13927,-3.412744 -1.75391,-6.448495 -4.97178,-7.972328 -0.88817,-0.4206 -2.01454,-0.76615 -2.50304,-0.767884 -0.85116,-0.0026 -0.88817,-0.0711 -0.88817,-1.63266 v -1.629506 l 1.21113,0.20298 c 4.69697,0.787166 8.1218,3.501184 9.65971,7.654869 0.64067,1.730288 0.68432,5.852108 0.0773,7.289517 l -0.45139,1.068672 z"
       id="path942"
       inkscape:connector-curvature="0"
       sodipodi:nodetypes="cscccssccccccccsscccssscscccsccscscccscccccscscccc"
       inkscape:export-xdpi="842.6037"
       inkscape:export-ydpi="842.6037" />
    <path
       style="fill:#000000;stroke:#000000;stroke-width:3.51354027;stroke-miterlimit:4;stroke-dasharray:none;stroke-opacity:1"
       d="m 94.580984,110.44401 c -8.50279,-1.50494 -16.49768,-5.82032 -22.45441,-12.120195 -16.53181,-17.484187 -14.06346,-45.438568 5.2884,-59.891409 20.17123,-15.064778 49.148556,-7.946631 60.215536,14.791659 10.64192,21.864971 -0.60398,48.243905 -23.79089,55.805075 -5.92195,1.93113 -13.28537,2.47208 -19.258636,1.41487 z m 13.290486,-3.34415 c 9.63712,-1.64526 18.76405,-7.583065 24.19814,-15.742855 12.32429,-18.505968 5.72843,-43.703598 -14.01384,-53.536035 -12.11306,-6.032783 -26.096756,-5.187449 -37.269216,2.252973 -11.09332,7.387739 -17.48502,20.931354 -16.12639,34.17085 2.21818,21.615632 21.80653,36.509337 43.211306,32.855067 z"
       id="path942-7"
       inkscape:connector-curvature="0"
       sodipodi:nodetypes="csssccscscss"
       inkscape:export-xdpi="842.6037"
       inkscape:export-ydpi="842.6037" />
    <rect
       style="opacity:0.95;fill:none;fill-opacity:1;stroke:none;stroke-width:2.39936662;stroke-linejoin:round;stroke-miterlimit:4;stroke-dasharray:none;stroke-opacity:1;filter:url(#filter984-5)"
       id="rect982-56"
       width="171.64934"
       height="154.10979"
       x="-186.96948"
       y="191.29716"
       inkscape:export-xdpi="433.99875"
       inkscape:export-ydpi="433.99875" />
    <flowRoot
       xml:space="preserve"
       id="flowRoot869-6-0-2"
       style="font-style:normal;font-weight:normal;font-size:265.62667847px;line-height:1.25;font-family:sans-serif;letter-spacing:0px;word-spacing:0px;fill:#000000;fill-opacity:1;stroke:none;stroke-opacity:1"
       transform="matrix(0.26458333,0,0,0.26458333,530.60871,-77.791349)"
       inkscape:export-xdpi="593.26587"
       inkscape:export-ydpi="593.26587"><flowRegion
         id="flowRegion871-7-4-9"
         style="font-size:265.62667847px;stroke:none;stroke-opacity:1"><rect
           id="rect873-7-0-1"
           width="1096.0155"
           height="331.4563"
           x="-1767.767"
           y="928.06531"
           style="font-size:265.62667847px;stroke:none;stroke-opacity:1" /></flowRegion><flowPara
         id="flowPara875-3-2-2"
         style="font-style:normal;font-variant:normal;font-weight:normal;font-stretch:normal;font-size:146.66667175px;font-family:'Trebuchet MS';-inkscape-font-specification:'Trebuchet MS';stroke:none;stroke-opacity:1">Scanvus</flowPara></flowRoot>    <path
       style="fill:#ff0000;fill-opacity:1;stroke:#ff0000;stroke-width:0.10144975;stroke-miterlimit:4;stroke-dasharray:none;stroke-opacity:1"
       d="m 38.951568,225.11667 c -4.79975,-4.80155 -5.78458,-5.70542 -6.21666,-5.70542 -0.3258,0 -0.70707,-0.19353 -1.04326,-0.52977 -0.71226,-0.71226 -0.71226,-1.49048 0,-2.20278 0.71232,-0.71231 1.49056,-0.71231 2.20282,0 0.33516,0.33519 0.52976,0.71764 0.52976,1.04111 0,0.42924 0.91714,1.42876 5.71355,6.22698 l 5.71353,5.71562 -0.59825,0.57984 -0.59826,0.57987 z m 6.07038,1.53913 c -0.51987,-0.54263 -0.5222,-0.55445 -0.20316,-1.04212 0.58899,-0.90037 1.53019,-3.01548 1.83249,-4.11812 0.74188,-2.70597 0.51132,-6.39353 -0.56841,-9.09068 -1.36067,-3.39885 -4.50714,-6.5505 -7.89305,-7.906 -1.33439,-0.53414 -3.59572,-1.0369 -4.66417,-1.0369 h -0.73258 v -0.91521 -0.9152 l 1.13276,0.11613 c 5.88691,0.60353 10.68294,3.83111 13.18541,8.87332 1.20935,2.43672 1.68611,4.46097 1.68611,7.15908 0,2.39653 -0.42902,4.49002 -1.3253,6.46667 -0.60476,1.33378 -1.59078,2.9579 -1.79581,2.9579 -0.0706,0 -0.36507,-0.24699 -0.65429,-0.54887 z m -3.4235,-3.42264 -0.50578,-0.52787 0.46972,-1.17416 c 1.90507,-4.76196 -0.0435,-10.057 -4.51039,-12.25599 -1.04168,-0.51282 -1.92726,-0.76377 -3.57928,-1.01429 -0.66828,-0.10119 -0.67965,-0.11655 -0.67965,-0.91036 v -0.80735 h 0.69598 c 1.06669,0 3.36906,0.6497 4.61691,1.30286 1.48407,0.77686 3.84433,3.13707 4.62116,4.62119 1.26439,2.41547 1.62273,5.45445 0.95232,8.07577 -0.35601,1.39198 -1.16801,3.21814 -1.43094,3.21814 -0.0793,0 -0.37186,-0.23757 -0.65005,-0.52794 z m -3.53578,-3.53538 c -0.58132,-0.60035 -0.61795,-0.70987 -0.57658,-1.72352 0.0781,-1.91508 -0.98421,-3.61862 -2.78999,-4.4738 -0.49841,-0.23597 -1.13048,-0.42991 -1.40462,-0.43087 -0.47761,-0.003 -0.49841,-0.0401 -0.49841,-0.9162 v -0.91441 l 0.67965,0.11393 c 2.63577,0.4417 4.55768,1.96475 5.42069,4.29561 0.35952,0.97097 0.38402,3.28399 0.0433,4.09061 l -0.25331,0.59972 z"
       id="path942-70"
       inkscape:connector-curvature="0"
       sodipodi:nodetypes="cscccssccccccccsscccssscscccsccscscccscccccscscccc"
       inkscape:export-xdpi="593.26587"
       inkscape:export-ydpi="593.26587" />
    <path
       style="fill:#000000;stroke:#000000;stroke-width:1.97167611;stroke-miterlimit:4;stroke-dasharray:none;stroke-opacity:1"
       d="m 28.356688,240.19444 c -4.77144,-0.84461 -9.25788,-3.26618 -12.60059,-6.80145 -9.2771003,-9.81154 -7.8919603,-25.49854 2.96763,-33.60895 11.31942,-8.45384 27.58047,-4.45939 33.79089,8.30053 5.97185,12.26985 -0.33892,27.07278 -13.35061,31.31588 -3.32321,1.08364 -7.45528,1.38724 -10.80732,0.79399 z m 7.45818,-1.87666 c 5.408,-0.92324 10.52972,-4.25534 13.57918,-8.83434 6.91595,-10.38489 3.21457,-24.52494 -7.86409,-30.04258 -6.79745,-3.38537 -14.64462,-2.91101 -20.91417,1.26434 -6.22521,4.14577 -9.81201,11.74592 -9.04957,19.17549 1.24476,12.12994 12.23706,20.48777 24.24865,18.43709 z"
       id="path942-7-9"
       inkscape:connector-curvature="0"
       sodipodi:nodetypes="csssccscscss"
       inkscape:export-xdpi="593.26587"
       inkscape:export-ydpi="593.26587" />
  </g>
</svg>
